<svg width="1440" height="1529" viewBox="0 0 1440 1529" fill="none" xmlns="http://www.w3.org/2000/svg">
<path d="M219.5 94C-48 128 -156.5 328.5 -152.5 523.5C-158.167 785 -153.5 1330.3 -89.5 1419.5C-9.50002 1531 530 1694.5 680.5 1675C831 1655.5 919 1603 1076.5 1229.5C1234 856 1449.5 900.5 1643.5 819.5C1837.5 738.5 1717 454 1570 198.5C1423 -57 776.5 -338.5 703 -105C629.5 128.5 487 60 219.5 94Z" stroke="black" stroke-width="2" stroke-linecap="round"/>
<path d="M213.387 76.7143C-66.7174 112.319 -180.33 322.281 -176.142 526.484C-182.075 800.326 -177.189 1371.36 -110.173 1464.77C-26.4033 1581.53 538.518 1752.75 696.11 1732.33C853.702 1711.91 945.848 1656.93 1110.77 1265.8C1275.69 874.677 1501.35 921.277 1704.49 836.454C1907.63 751.631 1781.45 453.704 1627.52 186.146C1473.6 -81.412 796.634 -376.197 719.67 -131.677C642.707 112.843 493.492 41.1097 213.387 76.7143Z" stroke="black" stroke-width="2" stroke-linecap="round"/>
</svg>
