<?xml version="1.0" encoding="UTF-8"?><svg id="Icon" xmlns="http://www.w3.org/2000/svg" viewBox="0 0 597 488.5"><defs><style>.cls-1,.cls-2,.cls-3,.cls-4{stroke:#000;stroke-linecap:round;stroke-linejoin:round;stroke-width:10px;}.cls-1,.cls-5{fill:#e6e6e6;}.cls-2{fill:#ffcbcb;}.cls-6{fill:#bbf9ff;}.cls-3{fill:#fff4cb;}.cls-4{fill:none;}.cls-7{fill:#e2cbff;}</style></defs><path class="cls-6" d="M293,56c25.23-5.3,114.7-20.81,197.58,32,48.14,30.68,109.51,96.98,103.87,161.29-4.45,50.71-40.45,67.71-53.45,84.71s-57,68-66,105-70,57-126,45-66-17-127-20-92-74-92-74c0,0-21-69-87.5-92.5S6,203,28,182s51.88-52.96,65.94-113.48S144-7,181,4c41.2,12.25,50.42,47.66,89.61,52.77,9.66,1.26,17.71,.15,22.39-.77Z"/><g><rect class="cls-7" x="93" y="89" width="330" height="239" rx="10" ry="10"/><rect class="cls-4" x="93" y="89" width="330" height="239" rx="10" ry="10"/></g><g><rect class="cls-5" x="126" y="122" width="226" height="164" rx="10" ry="10"/><rect class="cls-4" x="126" y="122" width="226" height="164" rx="10" ry="10"/></g><line class="cls-1" x1="161.39" y1="228.5" x2="265" y2="124"/><line class="cls-1" x1="207.36" y1="243.42" x2="273" y2="177"/><line class="cls-4" x1="404.7" y1="124.61" x2="374" y2="124.61"/><line class="cls-4" x1="404.52" y1="151.17" x2="373.82" y2="151.17"/><line class="cls-4" x1="404.52" y1="177.17" x2="373.82" y2="177.17"/><circle class="cls-2" cx="389.5" cy="223.5" r="13.5"/><circle class="cls-2" cx="389.5" cy="283.5" r="13.5"/><polyline class="cls-4" points="321 25 258.85 88.53 194.9 25"/><g id="Layer_8"><g><polygon class="cls-3" points="119.5 328.5 127.94 357.5 161.39 357.5 171.5 328.5 119.5 328.5"/><polygon class="cls-3" points="397.94 328.5 389.5 357.5 356.06 357.5 345.94 328.5 397.94 328.5"/></g><g><path d="M170.09,329.5l-9.41,27h-31.98l-7.86-27h49.26m1.41-1h0Zm0,0h-52l8.44,29h33.44l10.11-29h0Z"/><path d="M396.61,329.5l-7.86,27h-31.98l-9.41-27h49.26m1.33-1h-52l10.11,29h33.44l8.44-29h0Z"/></g></g></svg>