<svg width="168" height="44" viewBox="0 0 168 44" fill="none" xmlns="http://www.w3.org/2000/svg">
<path d="M5.23438 31.0703L5.46875 29.5859H2.53906L1.79688 34L14.1016 33.9609L15.5469 24.9375L6.71875 22.7891L7.22656 19.3125H13.5547L13.0469 22.7891H16.0156L16.9922 16.3828H4.60938L3.125 25.6016L12.0703 27.75L11.5625 31.0703H5.23438ZM28.1766 34H20.9891L23.2937 19.1953H19.7L20.2078 16.3828H23.8016L24.5828 11.1875H27.5516L26.7312 16.3828H30.9891L30.5203 19.1953H26.2625L24.3875 31.1875H28.6453L28.1766 34ZM41.9391 19.2734L37.6031 19.3125L35.2984 34H32.1734L34.9859 16.3828H45.3766L44.3609 22.7891H41.4312L41.9391 19.2734ZM49.6469 26.8125L48.9047 31.1875H58.2016L57.7719 34H45.35L48.1625 16.3828H60.4672L58.8266 26.8125H49.6469ZM50.0766 23.9219H56.4047L57.1078 19.2734H50.7797L50.0766 23.9219ZM72.2766 23.6094L72.9797 19.1953H63.6828L64.1516 16.3828H76.5344L73.7609 34H61.4172L63.0578 23.6094H72.2766ZM71.8078 26.4609H65.5187L64.7766 31.1094H71.1047L71.8078 26.4609ZM89.75 34H86.5469L88.8906 19.1953H82.6406L80.2969 34H77.3281L80.1406 16.3828H101.742L98.9297 34H95.8047L98.1875 19.1953H92.0938L89.75 34ZM106.794 26.8125L106.052 31.1875H115.348L114.919 34H102.497L105.309 16.3828H117.614L115.973 26.8125H106.794ZM107.223 23.9219H113.552L114.255 19.2734H107.927L107.223 23.9219ZM129.423 23.6094L130.127 19.1953H120.83L121.298 16.3828H133.681L130.908 34H118.564L120.205 23.6094H129.423ZM128.955 26.4609H122.666L121.923 31.1094H128.252L128.955 26.4609ZM137.913 31.0703L138.147 29.5859H135.217L134.475 34L146.78 33.9609L148.225 24.9375L139.397 22.7891L139.905 19.3125H146.233L145.725 22.7891H148.694L149.67 16.3828H137.288L135.803 25.6016L144.748 27.75L144.241 31.0703H137.913ZM154.761 26.8125L154.019 31.1875H163.316L162.886 34H150.464L153.277 16.3828H165.581L163.941 26.8125H154.761ZM155.191 23.9219H161.519L162.222 19.2734H155.894L155.191 23.9219Z" fill="black"/>
</svg>
