<svg width="214" height="60" viewBox="0 0 214 60" fill="none" xmlns="http://www.w3.org/2000/svg">
<rect width="214" height="60" fill="black"/>
<path d="M28.2344 39.0703L28.4688 37.5859H25.5391L24.7969 42L37.1016 41.9609L38.5469 32.9375L29.7188 30.7891L30.2266 27.3125H36.5547L36.0469 30.7891H39.0156L39.9922 24.3828H27.6094L26.125 33.6016L35.0703 35.75L34.5625 39.0703H28.2344ZM51.1766 42H43.9891L46.2937 27.1953H42.7L43.2078 24.3828H46.8016L47.5828 19.1875H50.5516L49.7312 24.3828H53.9891L53.5203 27.1953H49.2625L47.3875 39.1875H51.6453L51.1766 42ZM64.9391 27.2734L60.6031 27.3125L58.2984 42H55.1734L57.9859 24.3828H68.3766L67.3609 30.7891H64.4312L64.9391 27.2734ZM72.6469 34.8125L71.9047 39.1875H81.2016L80.7719 42H68.35L71.1625 24.3828H83.4672L81.8266 34.8125H72.6469ZM73.0766 31.9219H79.4047L80.1078 27.2734H73.7797L73.0766 31.9219ZM95.2766 31.6094L95.9797 27.1953H86.6828L87.1516 24.3828H99.5344L96.7609 42H84.4172L86.0578 31.6094H95.2766ZM94.8078 34.4609H88.5187L87.7766 39.1094H94.1047L94.8078 34.4609ZM112.75 42H109.547L111.891 27.1953H105.641L103.297 42H100.328L103.141 24.3828H124.742L121.93 42H118.805L121.188 27.1953H115.094L112.75 42ZM129.794 34.8125L129.052 39.1875H138.348L137.919 42H125.497L128.309 24.3828H140.614L138.973 34.8125H129.794ZM130.223 31.9219H136.552L137.255 27.2734H130.927L130.223 31.9219ZM152.423 31.6094L153.127 27.1953H143.83L144.298 24.3828H156.681L153.908 42H141.564L143.205 31.6094H152.423ZM151.955 34.4609H145.666L144.923 39.1094H151.252L151.955 34.4609ZM160.913 39.0703L161.147 37.5859H158.217L157.475 42L169.78 41.9609L171.225 32.9375L162.397 30.7891L162.905 27.3125H169.233L168.725 30.7891H171.694L172.67 24.3828H160.288L158.803 33.6016L167.748 35.75L167.241 39.0703H160.913ZM177.761 34.8125L177.019 39.1875H186.316L185.886 42H173.464L176.277 24.3828H188.581L186.941 34.8125H177.761ZM178.191 31.9219H184.519L185.222 27.2734H178.894L178.191 31.9219Z" fill="white"/>
</svg>
